<?xml version="1.0" encoding="UTF-8"?>
<!DOCTYPE svg PUBLIC "-//W3C//DTD SVG 1.1//EN" "http://www.w3.org/Graphics/SVG/1.1/DTD/svg11.dtd">
<svg xmlns="http://www.w3.org/2000/svg" version="1.1" width="500px" height="500px" style="shape-rendering:geometricPrecision; text-rendering:geometricPrecision; image-rendering:optimizeQuality; fill-rule:evenodd; clip-rule:evenodd" xmlns:xlink="http://www.w3.org/1999/xlink">
<g><path style="opacity:0.983" fill="#fefffe" d="M 351.5,11.5 C 352.675,11.281 353.675,11.6143 354.5,12.5C 358.311,17.4791 362.311,22.3124 366.5,27C 344.33,45.156 325.83,66.3227 311,90.5C 307.435,96.4632 304.268,102.63 301.5,109C 334.034,109.29 363.368,118.956 389.5,138C 420.575,166.351 428.075,200.185 412,239.5C 404.855,259.334 392.022,264.501 373.5,255C 361.189,244.359 350.689,232.192 342,218.5C 339.055,214.933 335.889,211.6 332.5,208.5C 316.733,229.422 296.066,242.922 270.5,249C 240.194,252.934 219.361,240.767 208,212.5C 200.803,192.293 197.97,171.626 199.5,150.5C 180.979,152.031 162.646,154.864 144.5,159C 137.167,159.667 129.833,159.667 122.5,159C 113.414,155.738 108.747,149.238 108.5,139.5C 110.663,119.006 119.33,101.84 134.5,88C 164.491,61.5862 198.825,53.5862 237.5,64C 256.207,71.0467 271.04,82.88 282,99.5C 293.543,75.9675 308.21,54.6342 326,35.5C 334.698,27.6335 343.198,19.6335 351.5,11.5 Z"/></g>
<g><path style="opacity:0.989" fill="#fefffe" d="M 177.5,171.5 C 178.5,171.5 179.5,171.5 180.5,171.5C 181.227,197.094 188.727,220.427 203,241.5C 222.793,264.764 247.626,273.264 277.5,267C 298.074,261.465 316.241,251.632 332,237.5C 336.638,242.483 340.971,247.816 345,253.5C 351.041,259.709 357.208,265.709 363.5,271.5C 340.6,340.837 302.934,400.67 250.5,451C 235.377,465.395 218.377,477.062 199.5,486C 176.177,493.875 155.677,489.375 138,472.5C 122.038,452.901 111.704,430.568 107,405.5C 95.1398,341.498 97.1398,277.831 113,214.5C 115.934,204.363 119.268,194.363 123,184.5C 123.848,182.126 125.181,180.126 127,178.5C 144.208,178.825 161.042,176.491 177.5,171.5 Z"/></g>
</svg>
