<svg xmlns="http://www.w3.org/2000/svg"  viewBox="0 0 100 100" width="400px" height="400px"><path d="M 49.998047 17 C 44.948405 17.000501 38.984347 17.03955 33.929688 17.109375 C 28.875028 17.179205 24.794833 17.271947 23.28125 17.404297 A 1.0001 1.0001 0 0 0 22.859375 17.541016 C 21.033915 18.624791 18.74546 20.965619 16.763672 23.337891 C 15.772778 24.524027 14.880555 25.709476 14.212891 26.748047 C 13.545226 27.786618 13.039268 28.528585 13.007812 29.523438 A 1.0001 1.0001 0 0 0 13.007812 29.556641 L 13.007812 32.644531 C 13.007812 34.913653 14.052894 36.982391 15.541016 38.492188 C 16.239839 39.201189 17.044592 39.791226 17.90625 40.224609 C 17.616103 43.468749 17.480915 46.536492 17.435547 48.8125 A 1.0001 1.0001 0 0 0 17.435547 48.832031 L 17.435547 48.845703 C 17.428547 50.066427 17.423959 51.069821 17.417969 52.462891 A 1.0001 1.0001 0 0 0 17.417969 52.476562 C 17.449589 56.057505 17.269344 61.954107 17.574219 67.478516 C 17.726656 70.24072 17.997773 72.913808 18.494141 75.195312 C 18.990508 77.476818 19.671346 79.387427 20.898438 80.638672 A 1.0001 1.0001 0 0 0 21.384766 80.912109 C 27.644936 82.373611 38.787555 82.995986 50.015625 83 L 50.017578 83 C 61.245768 82.997 72.389031 82.373205 78.648438 80.916016 A 1.0001 1.0001 0 0 0 79.134766 80.642578 C 80.361469 79.391096 81.042752 77.478831 81.539062 75.197266 C 82.035374 72.9157 82.306484 70.244494 82.458984 67.482422 C 82.763985 61.958278 82.58361 56.061889 82.615234 52.482422 A 1.0001 1.0001 0 0 0 82.615234 52.46875 C 82.609234 51.073424 82.604656 50.06911 82.597656 48.845703 L 82.597656 48.837891 A 1.0001 1.0001 0 0 0 82.597656 48.816406 C 82.549565 46.547814 82.417488 43.486957 82.126953 40.248047 C 83.003346 39.813564 83.819911 39.213994 84.529297 38.494141 C 86.017056 36.984426 87.0625 34.913989 87.0625 32.644531 L 87.0625 29.556641 A 1.0001 1.0001 0 0 0 87.060547 29.523438 C 87.027337 28.523847 86.518222 27.782541 85.84375 26.744141 C 85.169278 25.705741 84.266708 24.519817 83.267578 23.333984 C 81.269318 20.962319 78.966225 18.623244 77.144531 17.541016 A 1.0001 1.0001 0 0 0 76.669922 17.402344 C 66.890731 17.058916 60.094988 16.999 49.998047 17 z M 50 19 C 59.971275 18.999012 66.716485 19.06443 76.289062 19.396484 C 77.63046 20.248212 79.884866 22.423293 81.738281 24.623047 C 82.695776 25.759464 83.557706 26.895494 84.166016 27.832031 C 84.774325 28.768569 85.064713 29.656434 85.0625 29.589844 L 85.0625 32.644531 C 85.0625 34.291074 84.277459 35.900558 83.105469 37.089844 C 81.933478 38.279129 80.397254 39.001953 79.082031 39.001953 C 75.595413 39.001953 72.769531 36.429583 72.769531 33.070312 A 1.0001 1.0001 0 0 0 72.746094 32.873047 A 1.0001 1.0001 0 0 0 72.683594 32.683594 A 1.0001 1.0001 0 0 0 72.585938 32.509766 A 1.0001 1.0001 0 0 0 72.525391 32.429688 A 1.0001 1.0001 0 0 0 72.455078 32.357422 A 1.0001 1.0001 0 0 0 72.296875 32.236328 A 1.0001 1.0001 0 0 0 72.119141 32.148438 A 1.0001 1.0001 0 0 0 71.826172 32.085938 A 1.0001 1.0001 0 0 0 71.626953 32.095703 A 1.0001 1.0001 0 0 0 71.251953 32.228516 A 1.0001 1.0001 0 0 0 71.169922 32.285156 A 1.0001 1.0001 0 0 0 71.021484 32.419922 A 1.0001 1.0001 0 0 0 70.958984 32.498047 A 1.0001 1.0001 0 0 0 70.859375 32.669922 A 1.0001 1.0001 0 0 0 70.794922 32.859375 A 1.0001 1.0001 0 0 0 70.769531 33.058594 A 1.0001 1.0001 0 0 0 70.769531 33.070312 C 70.769531 36.448782 68.055806 39.001953 64.570312 39.001953 C 61.08482 39.001953 58.476563 36.466621 58.476562 33.070312 A 1.0001 1.0001 0 0 0 56.476562 33.070312 C 56.476562 36.414122 53.558884 39.001953 50.072266 39.001953 L 50 39.001953 C 46.513382 39.001953 43.599609 36.414633 43.599609 33.070312 A 1.0001 1.0001 0 0 0 41.599609 33.070312 C 41.599609 36.466451 38.990525 39.001953 35.503906 39.001953 C 32.016162 39.001953 29.302734 36.448951 29.302734 33.070312 A 1.0001 1.0001 0 0 0 27.302734 33.070312 C 27.302734 36.429583 24.476853 39.001953 20.990234 39.001953 C 19.674508 39.001953 18.137222 38.279297 16.964844 37.089844 C 15.792466 35.90039 15.007812 34.290409 15.007812 32.644531 L 15.007812 29.587891 C 15.005812 29.649741 15.292571 28.764491 15.894531 27.828125 C 16.496492 26.891759 17.349722 25.755255 18.298828 24.619141 C 20.140138 22.415027 22.387007 20.234611 23.724609 19.388672 C 25.101815 19.281034 29.04222 19.177271 33.957031 19.109375 C 39.000372 19.039667 44.960642 19.000499 50 19 z M 49.998047 21 C 48.889445 21 47.745586 21.001859 46.582031 21.005859 A 0.50005 0.50005 0 1 0 46.585938 22.005859 C 47.748389 22.00182 48.890649 22 49.998047 22 L 50.242188 22 C 59.427264 22 65.919775 22.05328 74.472656 22.330078 A 0.50024408 0.50024408 0 0 0 74.503906 21.330078 C 65.938787 21.05288 59.431111 21 50.242188 21 L 49.998047 21 z M 43.5 21.019531 C 35.618904 21.063551 27.602597 21.180561 24.515625 21.332031 A 0.50005 0.50005 0 0 0 24.236328 21.435547 C 23.373328 22.095426 22.357186 23.089094 21.347656 24.183594 A 0.50037543 0.50037543 0 1 0 22.083984 24.861328 C 23.032587 23.832884 23.975143 22.928622 24.738281 22.330078 C 27.827541 22.183433 35.702414 22.063115 43.505859 22.019531 A 0.50005 0.50005 0 1 0 43.5 21.019531 z M 76.714844 22.423828 A 0.50005 0.50005 0 0 0 76.390625 23.292969 C 77.520511 24.359158 78.802893 25.775576 79.876953 27.087891 C 80.951013 28.400205 81.82849 29.642949 82.109375 30.228516 A 0.50013464 0.50013464 0 1 0 83.011719 29.796875 C 82.631604 29.004441 81.748081 27.794311 80.650391 26.453125 C 79.552701 25.111939 78.254239 23.674264 77.078125 22.564453 A 0.50005 0.50005 0 0 0 76.714844 22.423828 z M 19.933594 26.056641 A 0.50005 0.50005 0 0 0 19.556641 26.244141 C 18.394357 27.661116 17.448403 28.958688 17.054688 29.791016 A 0.50017688 0.50017688 0 1 0 17.958984 30.21875 C 18.249269 29.605078 19.192362 28.265931 20.330078 26.878906 A 0.50005 0.50005 0 0 0 19.933594 26.056641 z M 28.292969 36.679688 C 29.662239 39.241639 32.350819 41.001953 35.503906 41.001953 C 38.651423 41.001953 41.28386 39.237943 42.625 36.683594 C 44.051288 39.25394 46.8427 41.001953 50 41.001953 L 50.072266 41.001953 C 53.229565 41.001953 56.02205 39.253967 57.449219 36.683594 C 58.789973 39.237934 61.423409 41.001953 64.570312 41.001953 C 67.721589 41.001953 70.409652 39.242809 71.779297 36.681641 C 73.180838 39.247951 75.9271 41.001953 79.082031 41.001953 C 79.449179 41.001953 79.812707 40.958431 80.173828 40.894531 C 80.429521 43.895698 80.552576 46.729782 80.597656 48.851562 A 1.0001 1.0001 0 0 0 80.597656 48.857422 C 80.597656 48.857422 80.597656 48.859375 80.597656 48.859375 C 80.604656 50.081072 80.609234 51.082641 80.615234 52.476562 C 80.583214 56.141635 80.760905 61.975436 80.462891 67.373047 C 80.313766 70.073975 80.043205 72.662377 79.583984 74.773438 C 79.155463 76.743373 78.520022 78.210789 77.845703 79.011719 C 71.918294 80.337006 61.009277 80.997053 50.017578 81 L 50.015625 81 C 39.023961 80.996071 28.114176 80.338645 22.1875 79.009766 C 21.512737 78.209383 20.877966 76.740225 20.449219 74.769531 C 19.989961 72.658599 19.719375 70.070187 19.570312 67.369141 C 19.272422 61.971294 19.449989 56.137298 19.417969 52.470703 L 19.417969 52.462891 C 19.41796 52.46193 19.417977 52.459984 19.417969 52.458984 C 19.423969 51.071346 19.428567 50.070197 19.435547 48.851562 A 1.0001 1.0001 0 0 0 19.435547 48.845703 C 19.477935 46.723593 19.602487 43.889373 19.857422 40.886719 C 20.231666 40.955413 20.609444 41.001953 20.990234 41.001953 C 24.146076 41.001953 26.891844 39.247239 28.292969 36.679688 z M 37.457031 45 C 36.933893 45 35.290915 45.02278 33.533203 46.191406 C 31.775491 47.360029 29.880254 49.619667 28.371094 53.857422 A 1.0001 1.0001 0 0 0 28.349609 53.923828 L 25.216797 65.162109 A 1.0001 1.0001 0 0 0 25.216797 65.164062 C 24.620822 67.309009 24.353806 68.966731 24.376953 70.3125 C 24.400103 71.658269 24.737065 72.736647 25.404297 73.503906 C 26.071528 74.271166 26.989726 74.641236 27.90625 74.816406 C 28.822774 74.991576 29.781573 74.998486 30.746094 75 A 1.0001 1.0001 0 0 0 30.785156 75 C 36.446502 74.788324 39.832642 70.847224 40.347656 66.611328 C 43.344475 67.046742 46.63928 67.326172 50.013672 67.326172 L 50.015625 67.326172 C 53.390077 67.326172 56.685855 67.046752 59.683594 66.611328 C 60.19854 70.847108 63.586012 74.791294 69.248047 75 A 1.0001 1.0001 0 0 0 69.287109 75 C 70.251383 74.9985 71.208561 74.9916 72.125 74.816406 C 73.041439 74.641167 73.959849 74.269429 74.626953 73.501953 C 75.294057 72.734477 75.63117 71.656673 75.654297 70.310547 C 75.677427 68.964421 75.410418 67.305836 74.814453 65.160156 A 1.0001 1.0001 0 0 0 74.8125 65.160156 L 71.677734 53.921875 A 1.0001 1.0001 0 0 0 71.65625 53.855469 C 70.147554 49.618097 68.25281 47.359384 66.494141 46.191406 C 64.735471 45.023428 63.090406 45 62.566406 45 A 1.0001 1.0001 0 0 0 62.318359 45.033203 C 60.276838 45.048603 57.988338 45.280418 55.601562 47.644531 C 53.779747 47.469448 51.903521 47.358566 50.011719 47.361328 L 50.009766 47.361328 C 48.117967 47.358528 46.243464 47.467657 44.419922 47.642578 C 41.945815 45.188474 39.5578 45.003792 37.458984 45 A 1.0001 1.0001 0 0 0 37.457031 45 z M 37.455078 47 C 39.671355 47.004 41.086749 46.87465 43.339844 49.335938 A 1.0001 1.0001 0 0 0 44.181641 49.654297 C 46.065955 49.458116 48.034338 49.35838 50.007812 49.361328 A 1.0001 1.0001 0 0 0 50.009766 49.361328 L 50.011719 49.361328 A 1.0001 1.0001 0 0 0 50.013672 49.361328 C 51.986482 49.358428 53.955937 49.460008 55.839844 49.65625 A 1.0001 1.0001 0 0 0 56.679688 49.337891 C 58.934709 46.878455 60.345673 47.00973 62.560547 47.003906 L 62.566406 47.003906 A 1.0001 1.0001 0 0 0 62.59375 47.001953 C 63.122169 47.001539 64.078657 46.988703 65.386719 47.857422 C 66.709085 48.73564 68.361628 50.57122 69.767578 54.511719 L 72.886719 65.697266 C 73.451234 67.730301 73.672225 69.231887 73.654297 70.275391 C 73.636367 71.319327 73.403833 71.861632 73.117188 72.191406 C 72.830541 72.52118 72.410624 72.72524 71.75 72.851562 C 71.097746 72.976286 70.246963 72.996086 69.314453 72.998047 C 64.120245 72.802506 61.476563 69.160351 61.476562 65.554688 A 1.0001 1.0001 0 0 0 60.314453 64.568359 C 57.246679 65.071834 53.629825 65.326172 50.015625 65.326172 L 50.013672 65.326172 C 46.399471 65.326172 42.783545 65.071826 39.716797 64.568359 A 1.0001 1.0001 0 0 0 38.554688 65.554688 C 38.554688 69.161474 35.911695 72.799738 30.716797 72.998047 C 29.784039 72.996047 28.933697 72.976258 28.28125 72.851562 C 27.62043 72.725264 27.200706 72.521022 26.914062 72.191406 C 26.627419 71.861791 26.3949 71.320794 26.376953 70.277344 C 26.359003 69.233894 26.579506 67.732773 27.144531 65.699219 L 30.255859 54.529297 C 30.255859 54.529297 30.257812 54.527344 30.257812 54.527344 C 31.665413 50.576237 33.317183 48.737319 34.640625 47.857422 C 35.963125 46.978159 36.932888 46.999961 37.455078 47 z M 62.541016 49.003906 C 61.688528 49.006406 61.050065 49.001906 60.439453 49.146484 C 59.828841 49.291042 59.279726 49.601235 58.703125 50.134766 A 0.50005 0.50005 0 1 0 59.382812 50.867188 C 59.877212 50.409717 60.224534 50.224583 60.669922 50.119141 C 61.11531 50.013698 61.69241 50.006406 62.544922 50.003906 A 0.50005 0.50005 0 1 0 62.541016 49.003906 z M 64.787109 50.095703 A 0.50005 0.50005 0 0 0 64.429688 50.951172 C 65.521289 52.068287 66.397682 54.01832 66.904297 55.416016 L 68.070312 59.589844 L 69.998047 66.501953 A 0.50005 0.50005 0 1 0 70.960938 66.234375 L 69.033203 59.322266 L 67.861328 55.119141 A 0.50005 0.50005 0 0 0 67.849609 55.082031 C 67.321816 53.624219 66.447062 51.584927 65.144531 50.251953 A 0.50005 0.50005 0 0 0 64.787109 50.095703 z M 49.980469 51.058594 A 0.50005 0.50005 0 0 0 49.943359 51.0625 A 0.50005 0.50005 0 0 0 49.917969 51.066406 A 0.50005 0.50005 0 0 0 49.90625 51.068359 A 0.50005 0.50005 0 0 0 49.861328 51.080078 A 0.50005 0.50005 0 0 0 49.857422 51.082031 A 0.50005 0.50005 0 0 0 49.845703 51.085938 A 0.50005 0.50005 0 0 0 49.800781 51.103516 A 0.50005 0.50005 0 0 0 49.798828 51.103516 A 0.50005 0.50005 0 0 0 49.789062 51.109375 A 0.50005 0.50005 0 0 0 49.757812 51.125 A 0.50005 0.50005 0 0 0 49.746094 51.132812 A 0.50005 0.50005 0 0 0 49.720703 51.150391 A 0.50005 0.50005 0 0 0 49.707031 51.160156 A 0.50005 0.50005 0 0 0 49.673828 51.185547 A 0.50005 0.50005 0 0 0 49.654297 51.205078 A 0.50005 0.50005 0 0 0 49.652344 51.207031 A 0.50005 0.50005 0 0 0 49.638672 51.21875 C 49.623912 51.2325 48.062752 52.666929 46.330078 54.386719 C 45.460341 55.249989 44.555261 56.179362 43.789062 57.029297 C 43.022864 57.879232 42.400544 58.630799 42.068359 59.234375 A 0.50005 0.50005 0 0 0 42.527344 59.974609 L 46 59.828125 L 46 63.335938 C 46 63.336602 46.025181 63.489576 46.025391 63.490234 C 46.025603 63.490893 46.060741 63.578504 46.082031 63.611328 C 46.124611 63.676978 46.167021 63.714118 46.201172 63.740234 C 46.269462 63.792464 46.310546 63.805869 46.34375 63.818359 C 46.41016 63.843329 46.449108 63.849962 46.490234 63.857422 C 46.572484 63.872342 46.655887 63.880022 46.759766 63.888672 C 46.967522 63.905972 47.24551 63.918917 47.578125 63.929688 C 48.243356 63.951228 49.120952 63.962891 50 63.962891 C 50.879048 63.962891 51.756644 63.951228 52.421875 63.929688 C 52.75449 63.918917 53.032478 63.905972 53.240234 63.888672 C 53.344113 63.879972 53.427512 63.872342 53.509766 63.857422 C 53.550896 63.849922 53.589846 63.843329 53.65625 63.818359 C 53.68945 63.805869 53.73053 63.792474 53.798828 63.740234 C 53.832978 63.714114 53.875388 63.676984 53.917969 63.611328 C 53.939259 63.578498 53.974399 63.490893 53.974609 63.490234 C 53.974823 63.489576 54 63.336602 54 63.335938 L 54 59.828125 L 57.486328 59.972656 A 0.50005 0.50005 0 0 0 57.945312 59.232422 C 57.613095 58.628785 56.991195 57.877664 56.224609 57.027344 C 55.458024 56.177023 54.551689 55.248347 53.681641 54.384766 C 51.954561 52.670525 50.394702 51.236534 50.371094 51.214844 C 50.37098 51.214739 50.355519 51.199259 50.355469 51.199219 A 0.50005 0.50005 0 0 0 50.345703 51.191406 A 0.50005 0.50005 0 0 0 50.005859 51.058594 L 49.980469 51.058594 z M 50.007812 52.25 C 50.28438 52.505239 51.428491 53.557186 52.976562 55.09375 C 53.838515 55.949294 54.735882 56.86918 55.482422 57.697266 C 55.938439 58.203094 56.153004 58.53456 56.451172 58.929688 L 53.521484 58.808594 A 0.50005 0.50005 0 0 0 53 59.308594 L 53 62.900391 C 52.831613 62.911501 52.647561 62.923321 52.390625 62.931641 C 51.743356 62.952601 50.870952 62.962891 50 62.962891 C 49.129048 62.962891 48.256644 62.952601 47.609375 62.931641 C 47.352439 62.923321 47.168387 62.9115 47 62.900391 L 47 59.308594 A 0.50005 0.50005 0 0 0 46.478516 58.808594 L 43.564453 58.929688 C 43.862336 58.535086 44.076272 58.203921 44.53125 57.699219 C 45.277395 56.871529 46.173519 55.950933 47.035156 55.095703 C 48.576323 53.565997 49.71857 52.517212 50.007812 52.25 z M 32.548828 55.046875 A 0.50005 0.50005 0 0 0 32.085938 55.417969 L 29.595703 64.355469 A 0.50005 0.50005 0 1 0 30.558594 64.623047 L 33.048828 55.6875 A 0.50005 0.50005 0 0 0 32.548828 55.046875 z M 29.492188 66.003906 A 0.50005 0.50005 0 0 0 29.033203 66.378906 C 28.405667 68.67784 28.345219 69.868853 28.384766 70.455078 A 0.50012651 0.50012651 0 1 0 29.382812 70.388672 C 29.354363 69.966897 29.389612 68.871645 29.998047 66.642578 A 0.50005 0.50005 0 0 0 29.492188 66.003906 z"/></svg>