<?xml version="1.0" encoding="UTF-8"?>
<!DOCTYPE svg PUBLIC "-//W3C//DTD SVG 1.1//EN" "http://www.w3.org/Graphics/SVG/1.1/DTD/svg11.dtd">
<svg xmlns="http://www.w3.org/2000/svg" version="1.1" width="500px" height="500px" style="shape-rendering:geometricPrecision; text-rendering:geometricPrecision; image-rendering:optimizeQuality; fill-rule:evenodd; clip-rule:evenodd" xmlns:xlink="http://www.w3.org/1999/xlink">
<g><path style="opacity:1" fill="#000000" d="M -0.5,-0.5 C 166.167,-0.5 332.833,-0.5 499.5,-0.5C 499.5,166.167 499.5,332.833 499.5,499.5C 332.833,499.5 166.167,499.5 -0.5,499.5C -0.5,332.833 -0.5,166.167 -0.5,-0.5 Z"/></g>
<g><path style="opacity:1" fill="#fefffe" d="M 79.5,39.5 C 192.834,39.3333 306.167,39.5 419.5,40C 440.667,45.1667 453.833,58.3333 459,79.5C 459.667,192.833 459.667,306.167 459,419.5C 453.833,440.667 440.667,453.833 419.5,459C 306.167,459.667 192.833,459.667 79.5,459C 58.3333,453.833 45.1667,440.667 40,419.5C 39.3333,306.167 39.3333,192.833 40,79.5C 45.3483,58.319 58.5149,44.9857 79.5,39.5 Z"/></g>
<g><path style="opacity:1" fill="#000000" d="M 130.5,120.5 C 138.685,119.897 146.685,120.731 154.5,123C 168.671,131.184 172.171,142.684 165,157.5C 155.952,167.403 144.785,170.903 131.5,168C 112.065,162.298 106.232,150.131 114,131.5C 118.632,126.34 124.132,122.673 130.5,120.5 Z"/></g>
<g><path style="opacity:1" fill="#000000" d="M 109.5,199.5 C 129.5,199.5 149.5,199.5 169.5,199.5C 169.5,262.833 169.5,326.167 169.5,389.5C 149.5,389.5 129.5,389.5 109.5,389.5C 109.5,326.167 109.5,262.833 109.5,199.5 Z"/></g>
<g><path style="opacity:1" fill="#000000" d="M 199.5,199.5 C 219.5,199.5 239.5,199.5 259.5,199.5C 259.334,208.173 259.5,216.84 260,225.5C 285.057,200.356 314.223,193.856 347.5,206C 372.009,218.556 385.509,238.723 388,266.5C 389.4,307.484 389.9,348.484 389.5,389.5C 369.5,389.5 349.5,389.5 329.5,389.5C 329.976,351.119 329.476,312.785 328,274.5C 319.621,252.021 303.788,244.188 280.5,251C 268.968,256.524 262.135,265.691 260,278.5C 259.5,315.498 259.333,352.498 259.5,389.5C 239.5,389.5 219.5,389.5 199.5,389.5C 199.5,326.167 199.5,262.833 199.5,199.5 Z"/></g>
</svg>
