<svg xmlns="http://www.w3.org/2000/svg"  viewBox="0 0 100 100" width="400px" height="400px"><path d="M 50 14 C 30.149 14 14 30.149 14 50 C 14 69.851 30.149 86 50 86 C 69.851 86 86 69.851 86 50 C 86 30.149 69.851 14 50 14 z M 50 16 C 68.748 16 84 31.252 84 50 C 84 68.748 68.748 84 50 84 C 31.252 84 16 68.748 16 50 C 16 31.252 31.252 16 50 16 z M 50 19 C 32.907 19 19 32.907 19 50 C 19 67.093 32.907 81 50 81 C 67.093 81 81 67.093 81 50 C 81 41.279 77.294938 32.912875 70.835938 27.046875 C 70.632938 26.861875 70.316859 26.875078 70.130859 27.080078 C 69.944859 27.284078 69.959063 27.601109 70.164062 27.787109 C 76.415062 33.464109 80 41.561 80 50 C 80 66.542 66.542 80 50 80 C 33.458 80 20 66.542 20 50 C 20 33.458 33.458 20 50 20 C 53.549 20 57.024125 20.613219 60.328125 21.824219 C 60.587125 21.923219 60.87375 21.787344 60.96875 21.527344 C 61.06475 21.268344 60.930875 20.981719 60.671875 20.886719 C 57.256875 19.634719 53.667 19 50 19 z M 63.529297 22.144531 C 63.334438 22.133234 63.144234 22.235875 63.052734 22.421875 C 62.930734 22.669875 63.031297 22.968797 63.279297 23.091797 C 63.943297 23.419797 64.604094 23.779203 65.246094 24.158203 C 65.326094 24.205203 65.414 24.226562 65.5 24.226562 C 65.67 24.226562 65.837641 24.139422 65.931641 23.982422 C 66.071641 23.744422 65.993859 23.437875 65.755859 23.296875 C 65.092859 22.904875 64.408656 22.534312 63.722656 22.195312 C 63.660406 22.165063 63.59425 22.148297 63.529297 22.144531 z M 67.414062 24.525391 C 67.287937 24.547641 67.171297 24.617469 67.091797 24.730469 C 66.933797 24.956469 66.988844 25.268734 67.214844 25.427734 C 67.546844 25.659734 67.874266 25.899484 68.197266 26.146484 C 68.288266 26.215484 68.394 26.248047 68.5 26.248047 C 68.65 26.248047 68.799438 26.181734 68.898438 26.052734 C 69.066437 25.832734 69.023687 25.518563 68.804688 25.351562 C 68.470687 25.095563 68.130109 24.848422 67.787109 24.607422 C 67.674109 24.528422 67.540188 24.503141 67.414062 24.525391 z M 44.25 32.724609 C 35.389102 32.914117 28.872731 34.65017 28.320312 34.800781 C 26.196765 35.379827 24.937009 37.582723 25.513672 39.707031 L 25.513672 39.708984 C 26.090536 41.832891 28.294066 43.092253 30.419922 42.521484 L 30.421875 42.519531 C 30.408685 42.523131 31.915849 42.126018 34.333984 41.720703 C 36.752119 41.315388 40.134496 40.887744 44.035156 40.783203 C 51.836477 40.574121 61.701578 41.665806 70.091797 46.769531 C 70.739103 47.162701 71.459259 47.351563 72.167969 47.351562 C 73.518891 47.351563 74.835916 46.664422 75.587891 45.431641 C 76.733537 43.549589 76.132056 41.080056 74.25 39.935547 C 64.31666 33.893697 53.110898 32.535101 44.25 32.724609 z M 44.251953 33.75 C 52.988555 33.564008 64.026809 34.886913 73.730469 40.789062 C 75.150413 41.652554 75.598729 43.490208 74.734375 44.910156 C 74.166349 45.841374 73.181046 46.351562 72.167969 46.351562 C 71.636678 46.351562 71.100022 46.210893 70.611328 45.914062 C 61.978547 40.662788 51.926195 39.571036 44.009766 39.783203 C 40.051551 39.889287 36.624756 40.322909 34.169922 40.734375 C 31.716235 41.145649 30.288499 41.5198 30.160156 41.554688 C 28.554012 41.985918 26.915605 41.047405 26.480469 39.445312 C 26.045132 37.841622 26.981533 36.202579 28.583984 35.765625 C 29.080567 35.630236 35.515352 33.935992 44.251953 33.75 z M 44.099609 45.056641 C 36.461063 45.220124 30.844592 46.718875 30.365234 46.849609 C 28.506573 47.356728 27.40307 49.288733 27.910156 51.148438 C 28.417333 53.006146 30.347071 54.109882 32.207031 53.601562 L 32.207031 53.603516 C 32.226781 53.598216 37.191393 52.279739 43.896484 52.095703 C 50.601576 51.911668 59.086834 52.85226 66.330078 57.257812 C 66.89652 57.602098 67.526972 57.767578 68.146484 57.767578 C 69.32829 57.767578 70.481593 57.165174 71.138672 56.085938 C 72.138983 54.439953 71.613785 52.278796 69.966797 51.277344 C 61.398928 46.065468 51.738155 44.893157 44.099609 45.056641 z M 44.101562 46.082031 C 51.616017 45.922014 61.109134 47.058735 69.447266 52.130859 C 70.632278 52.851407 71.004798 54.382344 70.285156 55.566406 C 69.812235 56.343169 68.990679 56.767578 68.146484 56.767578 C 67.703997 56.767578 67.257167 56.650059 66.849609 56.402344 C 59.364854 51.849897 50.690049 50.908489 43.869141 51.095703 C 37.048232 51.282918 32.121561 52.58906 31.945312 52.636719 L 31.943359 52.636719 C 30.60532 53.002399 29.239823 52.221057 28.875 50.884766 C 28.510086 49.54647 29.291567 48.179334 30.628906 47.814453 C 31.051549 47.699187 36.587108 46.242048 44.101562 46.082031 z M 42.878906 56.556641 C 36.258113 56.699038 31.390814 57.998881 30.976562 58.111328 C 29.383609 58.545444 28.437061 60.202272 28.871094 61.794922 C 29.305312 63.387056 30.962429 64.331926 32.554688 63.900391 L 32.556641 63.900391 C 32.535301 63.906291 32.84604 63.82204 33.345703 63.710938 C 33.845366 63.599831 34.567203 63.451419 35.46875 63.298828 C 37.271844 62.993647 39.794614 62.671504 42.707031 62.591797 C 48.531866 62.432382 55.900277 63.251154 62.185547 67.074219 C 62.670873 67.370208 63.211151 67.511719 63.742188 67.511719 C 64.754829 67.511719 65.7455 66.994456 66.308594 66.070312 C 67.167001 64.65956 66.715192 62.807476 65.304688 61.949219 C 57.875134 57.429816 49.4997 56.414243 42.878906 56.556641 z M 42.886719 57.580078 C 49.381425 57.441725 57.583615 58.423137 64.783203 62.802734 C 65.732697 63.380477 66.030718 64.601534 65.453125 65.550781 C 65.074219 66.172638 64.417546 66.511719 63.742188 66.511719 C 63.387223 66.511719 63.031705 66.418709 62.707031 66.220703 L 62.705078 66.220703 C 56.178348 62.250768 48.620352 61.429212 42.679688 61.591797 C 39.709354 61.673087 37.140875 62.003009 35.300781 62.314453 C 34.380734 62.470175 33.643704 62.621856 33.128906 62.736328 C 32.615244 62.850547 32.357528 62.917713 32.292969 62.935547 C 31.221227 63.226012 30.127719 62.603069 29.835938 61.533203 C 29.544117 60.462394 30.168227 59.368717 31.238281 59.076172 C 31.60503 58.976622 36.392012 57.718431 42.886719 57.580078 z"/></svg>